<svg width="36" height="36" viewBox="0 0 36 36" fill="none" xmlns="http://www.w3.org/2000/svg">
<path d="M17.9977 0.374756C8.0595 0.374756 0 8.46576 0 18.4468C0 26.4298 5.157 33.2023 12.312 35.594C13.212 35.7605 13.5405 35.2025 13.5405 34.7233C13.5405 34.2935 13.5247 33.1573 13.5157 31.6498C8.5095 32.741 7.452 29.2265 7.452 29.2265C6.63525 27.1385 5.454 26.5828 5.454 26.5828C3.81825 25.4623 5.5755 25.4848 5.5755 25.4848C7.38225 25.613 8.33175 27.3478 8.33175 27.3478C9.93825 30.1085 12.546 29.312 13.572 28.8485C13.734 27.6808 14.1997 26.8843 14.715 26.432C10.719 25.9753 6.516 24.425 6.516 17.5018C6.516 15.5285 7.218 13.9153 8.37 12.6508C8.18325 12.194 7.56675 10.3558 8.5455 7.86951C8.5455 7.86951 10.0575 7.38351 13.4955 9.72126C14.931 9.32076 16.47 9.12051 18.0023 9.11376C19.53 9.12276 21.0712 9.32076 22.509 9.72351C25.9447 7.38576 27.4545 7.87176 27.4545 7.87176C28.4355 10.3603 27.819 12.1963 27.6345 12.653C28.7887 13.9175 29.484 15.5308 29.484 17.504C29.484 24.4453 25.2765 25.973 21.267 26.4208C21.9127 26.9788 22.4888 28.0813 22.4888 29.7665C22.4888 32.183 22.4662 34.1315 22.4662 34.7233C22.4662 35.207 22.7902 35.7695 23.7038 35.5918C30.8475 33.1978 36 26.4275 36 18.4468C36 8.46576 27.9405 0.374756 17.9977 0.374756Z" fill="#CBD1D2"/>
</svg>
