<svg width="45" height="36" viewBox="0 0 45 36" fill="none" xmlns="http://www.w3.org/2000/svg">
<path d="M44.3077 4.26185C42.66 4.98462 40.9043 5.46369 39.0738 5.69631C40.9569 4.572 42.3942 2.80523 43.0698 0.675692C41.3142 1.72246 39.3757 2.46185 37.3098 2.87446C35.6428 1.09939 33.2668 0 30.6748 0C25.6458 0 21.5972 4.08185 21.5972 9.08585C21.5972 9.80585 21.6582 10.4982 21.8077 11.1572C14.256 10.7889 7.57385 7.16954 3.08492 1.656C2.30123 3.01569 1.84154 4.572 1.84154 6.24739C1.84154 9.39323 3.46154 12.1818 5.87631 13.7963C4.41692 13.7686 2.98523 13.3449 1.77231 12.6775C1.77231 12.7052 1.77231 12.7412 1.77231 12.7772C1.77231 17.1914 4.92092 20.8578 9.04985 21.7025C8.31046 21.9046 7.50461 22.0015 6.66831 22.0015C6.08677 22.0015 5.49969 21.9683 4.94862 21.8465C6.12554 25.4437 9.46523 28.0883 13.4363 28.1742C10.3458 30.5917 6.42185 32.0483 2.17385 32.0483C1.42892 32.0483 0.714461 32.0151 0 31.9237C4.02369 34.5185 8.79231 36 13.9348 36C30.6498 36 39.7883 22.1538 39.7883 10.152C39.7883 9.75046 39.7745 9.36277 39.7551 8.97785C41.5578 7.69846 43.0726 6.10062 44.3077 4.26185Z" fill="#CBD1D2"/>
</svg>
